<svg width="140" height="142" viewBox="0 0 140 142" fill="none" xmlns="http://www.w3.org/2000/svg">
    <g clip-path="url(#clip0_88_2)">
    <ellipse cx="70" cy="71" rx="70" ry="71" fill="none"/>
    <path d="M115.49 103.939L109.26 110.363C98.2744 121.399 83.8464 126.835 69.582 126.835V127C55.1536 126.835 40.7252 121.399 29.74 110.363C21.2142 101.633 15.8035 90.761 14 79.3951H32.8553C34.3308 85.9841 37.774 92.2435 42.8568 97.185V97.3499C50.0709 104.763 59.9084 108.386 69.582 108.386C76.4683 108.386 83.1905 106.575 89.0931 102.786L23.5096 36.8966L29.74 30.4723C40.7252 19.6006 55.1536 14 69.582 14C83.8464 14 98.2744 19.4359 109.26 30.4723C117.95 39.2027 123.36 50.2391 125 61.4403H106.308C104.669 55.0161 101.39 48.5919 96.3073 43.6501C88.9291 36.0729 79.0916 32.449 69.582 32.449C62.6957 32.449 55.8094 34.4256 49.9069 38.0496L115.49 103.939Z" fill="#1E1E1E"/>
    </g>
    <defs>
    <clipPath id="clip0_88_2">
    <rect width="140" height="142" fill="#fff"/>
    </clipPath>
    </defs>
    </svg>
    